<svg width="1920" height="1080" viewBox="0 0 1920 1080" xmlns="http://www.w3.org/2000/svg"><rect width="1920" height="1080" fill="#edffef"/><path d="M 0,1080 C 0,1080 0,180 0,180 C 137.63589743589742,180.63076923076923 275.27179487179484,181.26153846153846 362,188 C 448.72820512820516,194.73846153846154 484.54871794871804,207.5846153846154 587,196 C 689.451282051282,184.4153846153846 858.5333333333335,148.39999999999998 963,147 C 1067.4666666666665,145.60000000000002 1107.3179487179486,178.81538461538463 1222,177 C 1336.6820512820514,175.18461538461537 1526.194871794872,138.33846153846153 1655,133 C 1783.805128205128,127.66153846153847 1851.9025641025642,153.83076923076925 1920,180 C 1920,180 1920,1080 1920,1080 Z" fill="#2aa038" opacity="0.09999999999999999"/><path d="M 0,1080 C 0,1080 0,360 0,360 C 113.83076923076922,395.9102564102564 227.66153846153844,431.8205128205128 347,424 C 466.33846153846156,416.1794871794872 591.1846153846153,364.6282051282051 694,365 C 796.8153846153847,365.3717948717949 877.6000000000001,417.6666666666667 961,425 C 1044.3999999999999,432.3333333333333 1130.4153846153845,394.70512820512823 1238,371 C 1345.5846153846155,347.29487179487177 1474.7384615384615,337.5128205128205 1592,338 C 1709.2615384615385,338.4871794871795 1814.6307692307691,349.2435897435897 1920,360 C 1920,360 1920,1080 1920,1080 Z" fill="#2aa038" opacity="0.19999999999999998"/><path d="M 0,1080 C 0,1080 0,540 0,540 C 78.5,542.4205128205128 157,544.8410256410257 277,528 C 397,511.1589743589744 558.5,475.05641025641023 683,492 C 807.5,508.94358974358977 895,578.9333333333333 993,590 C 1091,601.0666666666667 1199.4999999999998,553.2102564102564 1302,543 C 1404.5000000000002,532.7897435897436 1501,560.225641025641 1603,566 C 1705,571.774358974359 1812.5,555.8871794871795 1920,540 C 1920,540 1920,1080 1920,1080 Z" fill="#2aa038" opacity="0.3"/><path d="M 0,1080 C 0,1080 0,720 0,720 C 108.11538461538461,694.0512820512821 216.23076923076923,668.1025641025642 308,654 C 399.7692307692308,639.8974358974358 475.19230769230774,637.6410256410256 599,658 C 722.8076923076923,678.3589743589744 895,721.3333333333334 999,719 C 1103,716.6666666666666 1138.8076923076924,669.025641025641 1220,672 C 1301.1923076923076,674.974358974359 1427.7692307692307,728.5641025641025 1552,745 C 1676.2307692307693,761.4358974358975 1798.1153846153848,740.7179487179487 1920,720 C 1920,720 1920,1080 1920,1080 Z" fill="#2aa038" opacity="0.39999999999999997"/><path d="M 0,1080 C 0,1080 0,900 0,900 C 108.30512820512823,867.6717948717949 216.61025641025645,835.3435897435896 315,839 C 413.38974358974355,842.6564102564104 501.8641025641025,882.297435897436 604,893 C 706.1358974358975,903.702564102564 821.9333333333334,885.4666666666667 927,891 C 1032.0666666666666,896.5333333333333 1126.402564102564,925.8358974358973 1226,940 C 1325.597435897436,954.1641025641027 1430.4564102564104,953.1897435897437 1547,944 C 1663.5435897435896,934.8102564102563 1791.7717948717948,917.4051282051282 1920,900 C 1920,900 1920,1080 1920,1080 Z" fill="#2aa038" opacity="0.49999999999999994"/></svg>